<svg width="32" height="32" viewBox="0 0 32 32" fill="none" xmlns="http://www.w3.org/2000/svg">
<g clip-path="url(#clip0_1_262)">
<path d="M15.9998 10.667C14.2325 10.667 12.7998 12.0997 12.7998 13.867C12.7998 15.6343 14.2325 17.067 15.9998 17.067C17.7671 17.067 19.1998 15.6343 19.1998 13.867C19.1998 12.0997 17.7671 10.667 15.9998 10.667Z" fill="white"/>
<path fill-rule="evenodd" clip-rule="evenodd" d="M19.2 4.26641L17.0667 4.26643V0H14.9333V4.26645H12.7998C5.73067 4.26652 1.95824e-05 9.9972 0 17.0663C-1.95818e-05 24.1355 5.73071 29.8662 12.7999 29.8662H19.2001C19.4786 29.8662 19.7552 29.8575 20.0295 29.8398L28.5414 31.9678C28.905 32.0587 29.2894 31.9522 29.5543 31.6873C29.8193 31.4223 29.9258 31.0379 29.8349 30.6743L28.6039 25.7502C30.711 23.4692 32 20.4175 32 17.0663C32 9.9971 26.2692 4.26635 19.2 4.26641ZM10.6667 13.8667C10.6667 10.9212 13.0545 8.53333 16 8.53333C18.9455 8.53333 21.3333 10.9212 21.3333 13.8667C21.3333 16.8122 18.9455 19.2 16 19.2C13.0545 19.2 10.6667 16.8122 10.6667 13.8667ZM16 25.6C13.7307 25.6 11.6428 24.8113 9.99949 23.494L11.3338 21.8295C12.6123 22.8544 14.2332 23.4667 16 23.4667C17.7667 23.4667 19.3876 22.8544 20.6661 21.8295L22.0004 23.494C20.3571 24.8113 18.2692 25.6 16 25.6Z" fill="white"/>
</g>
<defs>
<clipPath id="clip0_1_262">
<rect width="32" height="32" fill="white"/>
</clipPath>
</defs>
</svg>
